<svg xmlns="http://www.w3.org/2000/svg" width="768" height="460" viewBox="0 0 768 460">
  <g id="Group_7281" data-name="Group 7281" transform="translate(0 -83.2)">
    <path id="Intersection_2" data-name="Intersection 2" d="M0,292.277V0H768V434.122C670.49,458.235,543.542,460,413.313,460,241.054,460,89.256,393.43,0,292.277Z" transform="translate(0 83.2)" fill="#fff"/>
    <g id="Group_7280" data-name="Group 7280" transform="translate(67.562 133.766)">
      <path id="Path_7030" data-name="Path 7030" d="M732.116,552.262c-.23.34-.462.684-.7,1.026H180.431c-22.587-15.1-40.516-47.5-37.675-81.646,2.436-29.384,20.5-62.724,39.95-83.862,18.79-20.41,32.569-24,36.786-56.348.848-6.6,1.7-20.883,1.334-21.976-13.943-41.694,2.695-73.335,30.49-91.448,20.217-13.176,46.336-19.2,70.889-16.728C477.175,216.863,434.587,278.129,582.791,239c99.583-26.3,145.685,51.149,120.809,109.077-5.087,11.847-7.774,20.449-5.482,29.041,2.737,10.269,10.517,19.427,17.844,27.214C744.473,434.7,789.35,467.564,732.116,552.262Z" transform="translate(-142.426 -200.738)" fill="#ebf3fa"/>
      <path id="Path_7031" data-name="Path 7031" d="M601.663,552.416s9.677-14.659,24.256-15.147,22.624-18.079,40.59-19.056,17.845,14.17,27.923,17.1,21.543,5.375,24.6,17.1S601.663,552.416,601.663,552.416Z" transform="translate(-487.107 -439.002)" fill="#8cb4f4" opacity="0.5"/>
      <g id="Group_7236" data-name="Group 7236" transform="translate(5.01 150.467)">
        <path id="Path_7032" data-name="Path 7032" d="M766.356,971.264a200.563,200.563,0,0,1-19.259,34.773l-8.246-.019h-.088c-132.495-.315-532.055-1.49-532.055-1.49s-44.291-26.212-44.291-71.71c0-.628.008-1.251.025-1.884.652-24.321,7.168-70.667,63.193-94.726V858.1H238.5v-26.72q6.109-1.987,12.88-3.645,8.616-2.1,18.358-3.613c.637-.1,1.283-.2,1.928-.291q4.661-.682,8.942-1.6v32.525h14.212v-7.6l16.765.068V834.912h3.374v-2.438h.447v2.438h12.941v0h2.592v-2.441h.445v2.441H334.5V859.4h19.958v9.01H365.55v-5.233h10.288V842.4h5.128v-9.692h.777V842.4h12.3V824.241h1.207V842.4h8.136v-.252h-.015v-2.3h.015v-2.184h-.015v-3.628h.015v-2.321h-.015v-3.628h.015v-2.318h-.015v-3.628h.015v-2.507h-.015V816h.015v-3.191h-.015v-3.628h.015v-2.406H405.8v-2.716h.391v2.716h17.957v-2.716h.386v2.716h3.276v18.988l2.309.015v-.015H430.1v-3.628h.019v-2.507H430.1V816h.019v-2.5H430.1v-3.63h.019v-.012h21.773v.012h3.743c.2.1.388.191.584.291V830.89h15.917V858.1H485V807.779h2.8v-3.521h.5v3.521H498.45v-3.521h.506v3.521h14.378v-3.521h.5v3.521h9.049v-3.521h.5v3.521h3.719v46.973h14.212v-7.6l16.764.068V834.912h3.374v-2.438h.447v2.438h12.941v0h2.587v-2.441h.447v2.441H581V859.4h19.96v9.01h11.092v-5.233H622.34V842.4h5.128v-9.692h.777V842.4h12.3V824.241h1.207V842.4h8.133v-.252h-.012v-2.3h.012v-2.184h-.012v-3.628h.012v-2.321h-.012v-3.628h.012v-2.318h-.012v-3.628h.012v-2.507h-.012V816h.012v-3.191h-.012v-3.628h.012v-2.406h2.426v-2.716h.388v2.716h17.952v-2.716h.391v2.716h3.276v18.988l2.274.015h.032v-.015H676.6v-3.628h.017v-2.507H676.6V816h.017v-2.5H676.6v-3.63h.017v-.012H698.4v.012h3.74c.2.1.389.191.582.291V830.89H713.1c2.424,9.091,8.686,17.283,16.339,25.6l1.505,1.617C755.179,883.921,791.239,911.537,766.356,971.264Z" transform="translate(-162.418 -804.063)" fill="#d5e5fb"/>
        <g id="Group_7235" data-name="Group 7235" transform="translate(240.813 7.749)">
          <rect id="Rectangle_229" data-name="Rectangle 229" width="32.128" height="7.963" transform="translate(91.753 0.997)" fill="#e2eefd"/>
          <rect id="Rectangle_230" data-name="Rectangle 230" width="32.128" height="7.963" transform="translate(91.753 13.253)" fill="#e2eefd"/>
          <rect id="Rectangle_231" data-name="Rectangle 231" width="32.128" height="7.963" transform="translate(91.753 25.765)" fill="#e2eefd"/>
          <rect id="Rectangle_232" data-name="Rectangle 232" width="32.128" height="7.963" transform="translate(91.753 38.477)" fill="#e2eefd"/>
          <rect id="Rectangle_233" data-name="Rectangle 233" width="32.128" height="7.963" transform="translate(91.753 50.742)" fill="#e2eefd"/>
          <g id="Group_7229" data-name="Group 7229" transform="translate(246.695)">
            <rect id="Rectangle_234" data-name="Rectangle 234" width="14.99" height="4.836" fill="#e2eefd"/>
            <rect id="Rectangle_235" data-name="Rectangle 235" width="14.99" height="4.836" transform="translate(0 7.443)" fill="#e2eefd"/>
            <rect id="Rectangle_236" data-name="Rectangle 236" width="14.99" height="4.836" transform="translate(0 15.042)" fill="#e2eefd"/>
            <rect id="Rectangle_237" data-name="Rectangle 237" width="14.99" height="4.836" transform="translate(0 22.762)" fill="#e2eefd"/>
            <rect id="Rectangle_238" data-name="Rectangle 238" width="14.99" height="4.836" transform="translate(0 30.21)" fill="#e2eefd"/>
          </g>
          <g id="Group_7230" data-name="Group 7230" transform="translate(246.695 38.408)">
            <rect id="Rectangle_239" data-name="Rectangle 239" width="14.99" height="4.836" fill="#e2eefd"/>
            <rect id="Rectangle_240" data-name="Rectangle 240" width="14.99" height="4.836" transform="translate(0 7.443)" fill="#e2eefd"/>
            <rect id="Rectangle_241" data-name="Rectangle 241" width="14.99" height="4.836" transform="translate(0 15.042)" fill="#e2eefd"/>
            <rect id="Rectangle_242" data-name="Rectangle 242" width="14.99" height="4.836" transform="translate(0 22.762)" fill="#e2eefd"/>
            <rect id="Rectangle_243" data-name="Rectangle 243" width="14.99" height="4.836" transform="translate(0 30.21)" fill="#e2eefd"/>
          </g>
          <g id="Group_7231" data-name="Group 7231" transform="translate(273.359 3.171)">
            <rect id="Rectangle_244" data-name="Rectangle 244" width="16.064" height="4.836" fill="#e2eefd"/>
            <rect id="Rectangle_245" data-name="Rectangle 245" width="16.064" height="4.836" transform="translate(0 7.443)" fill="#e2eefd"/>
            <rect id="Rectangle_246" data-name="Rectangle 246" width="16.064" height="4.836" transform="translate(0 15.042)" fill="#e2eefd"/>
            <rect id="Rectangle_247" data-name="Rectangle 247" width="16.064" height="4.836" transform="translate(0 22.762)" fill="#e2eefd"/>
            <rect id="Rectangle_248" data-name="Rectangle 248" width="16.064" height="4.836" transform="translate(0 30.211)" fill="#e2eefd"/>
          </g>
          <g id="Group_7232" data-name="Group 7232" transform="translate(273.359 41.147)">
            <rect id="Rectangle_249" data-name="Rectangle 249" width="16.064" height="4.836" fill="#e2eefd"/>
            <rect id="Rectangle_250" data-name="Rectangle 250" width="16.064" height="4.836" transform="translate(0 7.443)" fill="#e2eefd"/>
            <rect id="Rectangle_251" data-name="Rectangle 251" width="16.064" height="4.836" transform="translate(0 15.042)" fill="#e2eefd"/>
            <rect id="Rectangle_252" data-name="Rectangle 252" width="16.064" height="4.836" transform="translate(0 22.762)" fill="#e2eefd"/>
            <rect id="Rectangle_253" data-name="Rectangle 253" width="16.064" height="4.836" transform="translate(0 30.211)" fill="#e2eefd"/>
          </g>
          <g id="Group_7233" data-name="Group 7233">
            <rect id="Rectangle_254" data-name="Rectangle 254" width="16.064" height="4.836" fill="#e2eefd"/>
            <rect id="Rectangle_255" data-name="Rectangle 255" width="16.064" height="4.836" transform="translate(0 7.443)" fill="#e2eefd"/>
            <rect id="Rectangle_256" data-name="Rectangle 256" width="16.064" height="4.836" transform="translate(0 15.042)" fill="#e2eefd"/>
            <rect id="Rectangle_257" data-name="Rectangle 257" width="16.064" height="4.836" transform="translate(0 22.762)" fill="#e2eefd"/>
            <rect id="Rectangle_258" data-name="Rectangle 258" width="16.064" height="4.836" transform="translate(0 30.21)" fill="#e2eefd"/>
          </g>
          <g id="Group_7234" data-name="Group 7234" transform="translate(27.202 3.171)">
            <rect id="Rectangle_259" data-name="Rectangle 259" width="18.257" height="4.836" fill="#e2eefd"/>
            <rect id="Rectangle_260" data-name="Rectangle 260" width="18.257" height="4.836" transform="translate(0 7.443)" fill="#e2eefd"/>
            <rect id="Rectangle_261" data-name="Rectangle 261" width="18.257" height="4.836" transform="translate(0 15.042)" fill="#e2eefd"/>
            <rect id="Rectangle_262" data-name="Rectangle 262" width="18.257" height="4.836" transform="translate(0 22.762)" fill="#e2eefd"/>
            <rect id="Rectangle_263" data-name="Rectangle 263" width="18.257" height="4.836" transform="translate(0 30.211)" fill="#e2eefd"/>
          </g>
        </g>
      </g>
      <path id="Path_7033" data-name="Path 7033" d="M1325.55,1489.369l-186.5.677v-41.156c7.521.231,15.313,1.544,21.95,4.926,20.637,10.522,17.934,24.517,43.492,19.387s46.639-7.281,58.086,0,19.845,4.383,34.084,4.337C1308.469,1477.5,1325.55,1478.764,1325.55,1489.369Z" transform="translate(-890.473 -1137.605)" fill="#8cb4f4" opacity="0.5"/>
      <path id="Path_7034" data-name="Path 7034" d="M1158.755,748.726a16.844,16.844,0,0,1-7.285,2.183c-11.837.738-15.943,5.139-25.519,14.459-6.119,5.941-15,6.339-21.388,6.272v-65.6c2.695,1.834,5.478,3.919,8.368,5.845,6.512,4.365,13.574,7.915,21.3,6.03,7.764-1.885,13.757-1.776,18.453-.259,5.992,1.885,9.913,5.991,12.723,11.021C1169.295,735.595,1165.929,744.62,1158.755,748.726Z" transform="translate(-864.586 -580.021)" fill="#b5cffc"/>
      <g id="Group_7240" data-name="Group 7240" transform="translate(327.228 227.749)">
        <g id="Group_7238" data-name="Group 7238" transform="translate(0 21.418)">
          <rect id="Rectangle_264" data-name="Rectangle 264" width="238.787" height="12.091" fill="#f0f5ff"/>
          <g id="Group_7237" data-name="Group 7237" transform="translate(10.048)">
            <path id="Path_7035" data-name="Path 7035" d="M1511.608,1211.911h-12.462l-4.445-12.091h12.461Z" transform="translate(-1494.701 -1199.82)" fill="#f77d48"/>
            <path id="Path_7036" data-name="Path 7036" d="M1613.188,1211.911h-12.461l-4.446-12.091h12.463Z" transform="translate(-1570.947 -1199.82)" fill="#f77d48"/>
            <path id="Path_7037" data-name="Path 7037" d="M1714.77,1211.911h-12.462l-4.445-12.091h12.462Z" transform="translate(-1647.196 -1199.82)" fill="#f77d48"/>
            <path id="Path_7038" data-name="Path 7038" d="M1816.351,1211.911h-12.462l-4.445-12.091h12.462Z" transform="translate(-1723.443 -1199.82)" fill="#f77d48"/>
            <path id="Path_7039" data-name="Path 7039" d="M1917.933,1211.911h-12.462l-4.445-12.091h12.462Z" transform="translate(-1799.69 -1199.82)" fill="#f77d48"/>
            <path id="Path_7040" data-name="Path 7040" d="M2019.514,1211.911h-12.461l-4.445-12.091h12.462Z" transform="translate(-1875.938 -1199.82)" fill="#f77d48"/>
            <path id="Path_7041" data-name="Path 7041" d="M2121.1,1211.911h-12.461l-4.445-12.091h12.461Z" transform="translate(-1952.186 -1199.82)" fill="#f77d48"/>
            <path id="Path_7042" data-name="Path 7042" d="M2222.676,1211.911h-12.462l-4.445-12.091h12.462Z" transform="translate(-2028.432 -1199.82)" fill="#f77d48"/>
            <path id="Path_7043" data-name="Path 7043" d="M2324.258,1211.911H2311.8l-4.445-12.091h12.462Z" transform="translate(-2104.679 -1199.82)" fill="#f77d48"/>
          </g>
        </g>
        <circle id="Ellipse_48" data-name="Ellipse 48" cx="22.393" cy="22.393" r="22.393" transform="translate(40.163 44.174) rotate(-80.515)" fill="#fff"/>
        <path id="Path_7044" data-name="Path 7044" d="M1638.178,1156.776a20.11,20.11,0,1,1,20.109,20.11A20.11,20.11,0,0,1,1638.178,1156.776Z" transform="translate(-1592.347 -1130.999)" fill="#f77d48"/>
        <g id="Group_7239" data-name="Group 7239" transform="translate(50.245 21.953)">
          <path id="Path_7045" data-name="Path 7045" d="M1655.878,1208.889l1.023-1.225a3.606,3.606,0,0,0,2.349.955c.708,0,1.135-.281,1.135-.764,0-.438-.27-.664-1.585-1-1.585-.4-2.607-.843-2.607-2.428a2.461,2.461,0,0,1,2.753-2.371,4.553,4.553,0,0,1,2.922,1l-.9,1.3a3.689,3.689,0,0,0-2.045-.775c-.663,0-1.011.3-1.011.708,0,.517.337.686,1.7,1.034,1.6.416,2.5.989,2.5,2.383,0,1.563-1.192,2.439-2.889,2.439A5.007,5.007,0,0,1,1655.878,1208.889Z" transform="translate(-1655.878 -1202.033)" fill="#fff"/>
          <path id="Path_7046" data-name="Path 7046" d="M1686.351,1204.1h-2.394v-1.6h6.519v1.6h-2.394v6.272h-1.731Z" transform="translate(-1676.954 -1202.371)" fill="#fff"/>
          <path id="Path_7047" data-name="Path 7047" d="M1712.665,1206.033a4.183,4.183,0,1,1,4.17,4.069A4.069,4.069,0,0,1,1712.665,1206.033Zm6.553,0a2.39,2.39,0,0,0-2.382-2.473,2.359,2.359,0,0,0-2.36,2.473,2.39,2.39,0,0,0,2.383,2.473A2.358,2.358,0,0,0,1719.218,1206.033Z" transform="translate(-1698.502 -1201.965)" fill="#fff"/>
          <path id="Path_7048" data-name="Path 7048" d="M1752.37,1202.506h3.215a2.7,2.7,0,0,1,3.012,2.742c0,1.82-1.416,2.765-3.181,2.765H1754.1v2.361h-1.731Zm3.1,3.967a1.222,1.222,0,0,0,1.372-1.214c0-.776-.54-1.191-1.406-1.191H1754.1v2.4Z" transform="translate(-1728.306 -1202.371)" fill="#fff"/>
        </g>
      </g>
      <g id="Group_7242" data-name="Group 7242" transform="translate(280.19 217.598)">
        <g id="Group_7241" data-name="Group 7241" transform="translate(0 0)">
          <rect id="Rectangle_265" data-name="Rectangle 265" width="32.551" height="93.042" transform="translate(14.487 41.099)" fill="#91b0f2"/>
          <rect id="Rectangle_266" data-name="Rectangle 266" width="32.552" height="93.042" transform="translate(0 41.099)" fill="#aec3ff"/>
          <path id="Rectangle_267" data-name="Rectangle 267" d="M23.519,0h0A23.519,23.519,0,0,1,47.038,23.519V35.928a0,0,0,0,1,0,0H0a0,0,0,0,1,0,0V23.519A23.519,23.519,0,0,1,23.519,0Z" fill="#91b0f2"/>
          <path id="Rectangle_268" data-name="Rectangle 268" d="M16.276,0h0A16.276,16.276,0,0,1,32.552,16.276V35.928a0,0,0,0,1,0,0H0a0,0,0,0,1,0,0V16.276A16.276,16.276,0,0,1,16.276,0Z" fill="#aec3ff"/>
        </g>
        <rect id="Rectangle_269" data-name="Rectangle 269" width="47.038" height="7.92" transform="translate(0 34.368)" fill="#1c468a"/>
      </g>
      <path id="Path_7049" data-name="Path 7049" d="M1265.845,549.695s7.805-15.4,26.469-13.691c0,0,27.1-25.673,55.992-3.423,0,0,30.716-5.513,53.463,4.773,15.166,6.858,20.176,14.053,20.176,14.053Z" transform="translate(-985.645 -443.01)" fill="#f8fcff"/>
      <path id="Path_7050" data-name="Path 7050" d="M1690.3,691.546s5.057-10.478,17.15-9.313c0,0,17.557-17.463,36.279-2.328,0,0,19.9-3.75,34.64,3.247,9.827,4.665,13.072,9.559,13.072,9.559Z" transform="translate(-1304.244 -555.77)" fill="#f8fcff"/>
      <path id="Path_7051" data-name="Path 7051" d="M1870.591,460.236a16.937,16.937,0,0,1,16.311-7.918s16.7-14.845,34.505-1.979c0,0,18.928-3.188,32.946,2.76,9.346,3.966,12.433,8.126,12.433,8.126Z" transform="translate(-1439.57 -384.152)" fill="#f8fcff"/>
      <path id="Path_7052" data-name="Path 7052" d="M396.184,636.666V880.5H180.334a95.145,95.145,0,0,1-27.263-31.472,88.4,88.4,0,0,1-10.413-50.174c1.2-14.5,5.824-30.854,15.634-49.013,31.365-58.08,56.231-45.6,61.441-94.062.594-5.516.931-11.822.995-19.11Z" transform="translate(-142.329 -527.947)" fill="#aec3ff"/>
      <path id="Path_7053" data-name="Path 7053" d="M397.175,713.291V856.366H143.649c1.2-14.5,5.824-30.854,15.634-49.013,31.365-58.08,56.23-45.6,61.441-94.062Z" transform="translate(-143.32 -585.462)" fill="#c5daff"/>
      <path id="Path_7054" data-name="Path 7054" d="M428.514,1488.162v31.471H212.663a95.14,95.14,0,0,1-27.263-31.471Z" transform="translate(-174.658 -1167.084)" fill="#91b0f2"/>
      <path id="Path_7055" data-name="Path 7055" d="M2285.983,1473.429a200.59,200.59,0,0,1-19.259,34.773q-3.925-.011-8.245-.019h-.088l-71.434-.513c2.9-13.642,30.756-11.685,40.792-12.767s9.822-22.042,27.2-21.822C2267.526,1473.239,2277.323,1475.892,2285.983,1473.429Z" transform="translate(-1677.035 -1155.762)" fill="#adc8fe"/>
      <g id="Group_7246" data-name="Group 7246" transform="translate(0 130.695)">
        <path id="Path_7056" data-name="Path 7056" d="M541.129,756.992h.862a132.469,132.469,0,0,1,106.373,53.52l24.51,33.024a28.493,28.493,0,0,0,10.307,8.588l43.7,21.491A22.575,22.575,0,0,1,739.5,893.874v35.485a10.471,10.471,0,0,1-10.471,10.47H534.461Z" transform="translate(-436.665 -748.959)" fill="#a2172e"/>
        <path id="Path_7057" data-name="Path 7057" d="M687.7,943.255l-.274-.427,0-.005-.481-.75-.191-.3-.32-.5-6.34-9.9-6.621-10.342A55.392,55.392,0,0,0,661.39,907.6q-2.122-1.693-4.393-3.164a54.967,54.967,0,0,0-26.222-8.712c-.359-.024-.721-.044-1.08-.061q-1.353-.065-2.717-.065H606.613a4.946,4.946,0,0,0-4.947,4.947V983.4a4.953,4.953,0,0,0,2.291,4.175,4.945,4.945,0,0,1,2.294,4.175v42.075a4.949,4.949,0,0,0,4.947,4.947h53.636l0-.332a52.65,52.65,0,0,1,.587-8.744,42.236,42.236,0,0,1,16.657-28.02l.093-.071a13.66,13.66,0,0,0,5.583-11V943.335Z" transform="translate(-487.109 -852.996)" fill="#7e0b1e"/>
        <g id="Group_7243" data-name="Group 7243" transform="translate(123.842 53.553)">
          <path id="Path_7058" data-name="Path 7058" d="M695.85,992.022H659.371A20.473,20.473,0,0,1,638.9,971.549V946.7a7.189,7.189,0,0,1,7.189-7.189h8.7a49.044,49.044,0,0,1,36.549,16.341h0a28.32,28.32,0,0,1,7.173,17.346l.823,15.143A3.49,3.49,0,0,1,695.85,992.022Z" transform="translate(-638.898 -939.512)" fill="#91b0f2"/>
        </g>
        <path id="Rectangle_270" data-name="Rectangle 270" d="M11.742,0h0a0,0,0,0,1,0,0V27.689a0,0,0,0,1,0,0h0A11.742,11.742,0,0,1,0,15.946v-4.2A11.742,11.742,0,0,1,11.742,0Z" transform="translate(200.315 106.063) rotate(180)" fill="#2b478b"/>
        <path id="Path_7059" data-name="Path 7059" d="M927.02,968.671,892.955,930.2a6.083,6.083,0,0,1,4.554-10.116h8.3a132.238,132.238,0,0,1,10.829,12.793L941.146,965.9a28.453,28.453,0,0,0,5.381,5.455l-6.372,1.491A13.448,13.448,0,0,1,927.02,968.671Z" transform="translate(-704.595 -871.378)" fill="#91b0f2"/>
        <path id="Path_7060" data-name="Path 7060" d="M1244.413,1254.127s-3.386-13.938-10.371-18.373-19.9-5.385-19.9-2.851,10.16,12.037,10.16,15.2a16.7,16.7,0,0,1-1.27,6.019Z" transform="translate(-946.839 -1105.142)" fill="#a1c3ff"/>
        <path id="Path_7061" data-name="Path 7061" d="M1298.323,1382.005s-.87,3.978-2.2,3.978-4.227-8.494-3.9-9.53,7.418-.373,7.583-.166A54.81,54.81,0,0,1,1298.323,1382.005Z" transform="translate(-1005.431 -1213.504)" fill="#f77d48"/>
        <path id="Path_7062" data-name="Path 7062" d="M668.069,1200.415c0-3.423-3.2-6.2-7.143-6.2s-7.143,2.775-7.143,6.2,3.2,6.2,7.143,6.2S668.069,1203.838,668.069,1200.415Z" transform="translate(-526.229 -1077.143)" fill="#2b478b"/>
        <path id="Rectangle_271" data-name="Rectangle 271" d="M.649,0H25.4a.65.65,0,0,1,.65.65v2.9A.649.649,0,0,1,25.4,4.2H.65A.65.65,0,0,1,0,3.551V.649A.649.649,0,0,1,.649,0Z" transform="translate(121.462 120.857)" fill="#ed883b"/>
        <path id="Path_7063" data-name="Path 7063" d="M250.961,742.226v172.5a.921.921,0,0,1-.921.921h-96.7c-.091-.161-.178-.322-.266-.486a90.274,90.274,0,0,1-6.01-13.681,88.823,88.823,0,0,1-4.4-36.493c1.2-14.5,5.824-30.854,15.634-49.013,2.548-4.716,5.05-8.967,7.505-12.822q1.931-3.034,3.818-5.751c2.729-3.936,5.39-7.41,7.969-10.525,1.71-2.064,3.386-3.972,5.023-5.751,18.79-20.41,32.569-24,36.786-56.348h14.123A17.444,17.444,0,0,1,250.961,742.226Z" transform="translate(-142.329 -724.782)" fill="#a2172e"/>
        <path id="Path_7064" data-name="Path 7064" d="M465.241,1440.359v1.961a8.173,8.173,0,0,1-8.173,8.173H169.311q-.883-1.473-1.732-3.022c-.091-.161-.178-.323-.266-.486a90.275,90.275,0,0,1-6.01-13.681H458.186A7.055,7.055,0,0,1,465.241,1440.359Z" transform="translate(-156.57 -1256.602)" fill="#2b478b"/>
        <g id="Group_7245" data-name="Group 7245" transform="translate(169.596 135.421)">
          <circle id="Ellipse_49" data-name="Ellipse 49" cx="35.377" cy="35.377" r="35.377" transform="translate(0 50.031) rotate(-45)" fill="#233862"/>
          <g id="Group_7244" data-name="Group 7244" transform="translate(23.235 23.288)">
            <path id="Path_7065" data-name="Path 7065" d="M967.63,1379.149a26.8,26.8,0,0,0-52.107,8.8,26.4,26.4,0,0,0,1.346,8.387,26.8,26.8,0,0,0,50.9,0,26.38,26.38,0,0,0,1.346-8.387A26.622,26.622,0,0,0,967.63,1379.149Zm-2.541,17.189a24.1,24.1,0,0,1-3.7,6.594,24.463,24.463,0,0,1-5.942,5.414,24.13,24.13,0,0,1-9.1,3.532h0a24.222,24.222,0,0,1-17.162-3.532,24.487,24.487,0,0,1-5.915-5.382l0,0a24.2,24.2,0,0,1-3.724-6.624,24.635,24.635,0,0,1-.894-3.022c-.1-.425-.18-.853-.249-1.282a24.235,24.235,0,0,1-.022-8.041v0a23.771,23.771,0,0,1,1.326-4.842,24.073,24.073,0,0,1,3.237-5.788,24.35,24.35,0,0,1,5.939-5.6,24.094,24.094,0,0,1,9.3-3.718h0a24.165,24.165,0,0,1,17.568,3.718h0a24.278,24.278,0,0,1,5.939,5.6l0,0a24.248,24.248,0,0,1,3.237,5.788,23.8,23.8,0,0,1,1.326,4.842,24.235,24.235,0,0,1-.022,8.043c-.068.43-.154.857-.249,1.282A24.523,24.523,0,0,1,965.089,1396.338Z" transform="translate(-915.523 -1361.155)" fill="#91b0f2"/>
            <path id="Path_7066" data-name="Path 7066" d="M1006.092,1443.895a8.388,8.388,0,1,0-7.825,7.825A8.388,8.388,0,0,0,1006.092,1443.895Z" transform="translate(-970.927 -1416.555)" fill="#91b0f2"/>
            <path id="Path_7067" data-name="Path 7067" d="M1011.5,1388.1l2.918-18.236h-8.51l3.023,18.236Z" transform="translate(-983.363 -1367.691)" fill="#91b0f2"/>
            <path id="Path_7068" data-name="Path 7068" d="M1041.967,1401.884l14.154-11.863-6.428-5.577-9.667,15.756Z" transform="translate(-1008.976 -1378.636)" fill="#91b0f2"/>
            <path id="Path_7069" data-name="Path 7069" d="M1051.851,1458.443l18.4,1.62-.6-8.489-17.976,4.3Z" transform="translate(-1017.715 -1429.025)" fill="#91b0f2"/>
            <path id="Path_7070" data-name="Path 7070" d="M955.523,1401.884l-14.154-11.863,6.428-5.577,9.667,15.756Z" transform="translate(-934.923 -1378.636)" fill="#91b0f2"/>
            <path id="Path_7071" data-name="Path 7071" d="M1011.5,1497l2.918,18.236h-8.51l3.023-18.236Z" transform="translate(-983.363 -1463.119)" fill="#91b0f2"/>
            <path id="Path_7072" data-name="Path 7072" d="M1041.967,1485.406l14.154,11.862-6.428,5.628-9.667-15.755Z" transform="translate(-1008.976 -1454.418)" fill="#91b0f2"/>
            <path id="Path_7073" data-name="Path 7073" d="M955.523,1485.612l-14.154,11.862,6.428,5.577,9.667-15.755Z" transform="translate(-934.923 -1454.573)" fill="#91b0f2"/>
            <path id="Path_7074" data-name="Path 7074" d="M938.165,1458.443l-18.4,1.62.6-8.489,17.976,4.3Z" transform="translate(-918.71 -1429.025)" fill="#91b0f2"/>
          </g>
        </g>
        <path id="Path_7075" data-name="Path 7075" d="M346.232,950.72l-7.056,5.751H283.694c1.71-2.064,3.386-3.972,5.023-5.751Z" transform="translate(-248.438 -894.372)" fill="#fff" opacity="0.3"/>
        <path id="Path_7076" data-name="Path 7076" d="M310.754,1015.98l-7.056,5.751H236.428q1.931-3.034,3.818-5.751Z" transform="translate(-212.96 -943.356)" fill="#fff" opacity="0.3"/>
        <rect id="Rectangle_272" data-name="Rectangle 272" width="4.398" height="2.443" transform="translate(199.323 86.633)" fill="#2b478b"/>
        <path id="Path_7077" data-name="Path 7077" d="M955.018,1066.93h0a1.058,1.058,0,0,0-1.058,1.058v4.771a1.059,1.059,0,0,0,1.058,1.059h0a1.059,1.059,0,0,0,1.059-1.059v-4.771A1.059,1.059,0,0,0,955.018,1066.93Z" transform="translate(-751.542 -981.6)" fill="#2b478b"/>
      </g>
      <g id="P297LW" transform="translate(449.509 191.598)">
        <path id="Path_7078" data-name="Path 7078" d="M1965.373,1103.683a7.626,7.626,0,0,0,0-3.2c-.221-1.029-.282-3.518-.847-3.49-.624.031-.282,1.833-.878,2.131s-.407.764-.407.764l1.693,4.109Z" transform="translate(-1958.6 -1065.069)" fill="#ffb27d"/>
        <path id="Path_7079" data-name="Path 7079" d="M1951.212,1095.365a9.685,9.685,0,0,0-.743-5.662c-1.341-2.385-3.242-4.962-5.016-4.962-1.956,0,.594,4.748.9,7.2.275,2.224,2.51,2.98,3.011,4.485Z" transform="translate(-1944.721 -1055.872)" fill="#ffb27d"/>
        <path id="Path_7080" data-name="Path 7080" d="M2018.376,1088.808a41.053,41.053,0,0,0,9-3.066s-1.984-8.708-6.681-12.122c-1.677-1.219-5.078-2.212-7.662-2.828-.818-.194-1.552-.351-2.123-.469-.741-.149-1.2-.23-1.217-.232h0s-.1.28-.248.767c-.858,1.324-3.78,2.327-6.234,2.167s-4.044-2.025-4.044-3.035l0,0h0s-.2.058-.547.168c-.514.163-1.357.441-2.381.824-2.678,1-6.579,2.079-8.156,4.8h0s-9.741,14.156-12.453,14.218c-2.014.047-11.581-7.364-11.581-7.364a13.187,13.187,0,0,0-1.727,1.31,4.932,4.932,0,0,0-1.045,1.411s7.9,14.218,13.425,14.432c4.919.191,9.559-3.145,14.117-6.957a88.471,88.471,0,0,1,1.217,24.543,10.914,10.914,0,0,0,10.63,6.645,61.884,61.884,0,0,0,8.368-.629c6.6-.979,8.471-2.341,8.444-3.027-.022-.619-.486-17.145-.439-18.031C2017.3,1097.267,2018.053,1095.031,2018.376,1088.808Z" transform="translate(-1957.144 -1044.798)" fill="#2b478b"/>
        <path id="Path_7081" data-name="Path 7081" d="M2012.649,1583.458c1.291-.788.556-6.668.556-6.668s-6.016-4.813-6.843-1.128-5.715,5.339-8.5,5.791a2.987,2.987,0,0,0-2.7,2Z" transform="translate(-1982.584 -1423.318)" fill="#233862"/>
        <path id="Path_7082" data-name="Path 7082" d="M2119.765,1583.458c1.291-.788.556-6.668.556-6.668s-6.016-4.813-6.843-1.128-5.716,5.339-8.5,5.791a2.986,2.986,0,0,0-2.7,2Z" transform="translate(-2062.986 -1423.318)" fill="#233862"/>
        <path id="Path_7083" data-name="Path 7083" d="M2059.445,1274.792c-2.141,9.048-4.838,19.379-5.892,25.2-.123.675-.222,1.289-.3,1.833s-.123,1.021-.144,1.417c-.56,10.91-9.183,35.853-10.726,36.434-2.386.9-6.145-1.014-8.112-1.64a1.687,1.687,0,0,1-1.182-1.917c4.27-19.632,6.528-47.842,8.553-64.467,1.073-8.8,2.41-17.091,2.41-17.091s18.215-2.948,18.34,4.151C2062.443,1261.467,2061.113,1267.74,2059.445,1274.792Z" transform="translate(-2011.026 -1182.888)" fill="#2b478b"/>
        <path id="Path_7084" data-name="Path 7084" d="M2115.153,1309.038c-2.141,9.047-4.838,19.379-5.892,25.2-.123.675-.767,6.4-.843,6.943l-1.144-41.6,2.684.247Z" transform="translate(-2066.734 -1217.133)" fill="#233862"/>
        <path id="Path_7085" data-name="Path 7085" d="M2116.637,1047.446l.005,1.03a3.464,3.464,0,0,0,3.069,3.69c3.3.472,5.8-1.255,5.715-3.74a34.631,34.631,0,0,1-.647-4.836,13.492,13.492,0,0,1,.117-1.928l-6.4-.154-1.885.37Z" transform="translate(-2073.744 -1023.421)" fill="#ffb27d"/>
        <path id="Path_7086" data-name="Path 7086" d="M2116.613,1041.878l.024,5.568a4.667,4.667,0,0,0,2.307.611c2.941,0,4.842-2.589,5.836-4.468a13.492,13.492,0,0,1,.117-1.928l-6.4-.154Z" transform="translate(-2073.744 -1023.421)" fill="#ed975d"/>
        <path id="Path_7087" data-name="Path 7087" d="M2105.668,1264.295l7.42,77.53s5.494,1.783,10.456.409c0,0,2.885-42.388,2.614-52.75s.01-25.252-.361-30.521C2125.552,1255.471,2105.668,1264.295,2105.668,1264.295Z" transform="translate(-2065.529 -1186.031)" fill="#2b478b"/>
        <path id="Path_7088" data-name="Path 7088" d="M2106.156,1004.966s9.838,1.988,10.982-4.159,3.183-10.028-3.049-11.557-7.894.589-8.774,2.547S2103.627,1004.291,2106.156,1004.966Z" transform="translate(-2064.619 -983.804)" fill="#ffb27d"/>
        <path id="Path_7089" data-name="Path 7089" d="M2109.481,985.4a3.023,3.023,0,0,1-.995-2.39c.162-1.389.161-3.2-.969-2.866s-1.185,1.243-1.648.715-.473-2.752-3.832-2.907-4.725,1.015-6.287.328-1.644-3.052-1.644-3.052a2.688,2.688,0,0,0,1.115,1.113s-2.606-3.565.411-6.009,6.095-.844,7.841-.738c3.847.233,6.333.463,7.59,2.992S2111.95,982.971,2109.481,985.4Z" transform="translate(-2056.85 -968.986)" fill="#2b478b"/>
        <path id="Path_7090" data-name="Path 7090" d="M2129.425,1069.548a29.713,29.713,0,0,0,5.424-4.985,6.887,6.887,0,0,1,3.486,1.948s-2.539,4.422-6.261,5.761Z" transform="translate(-2083.361 -1040.726)" fill="#233862"/>
        <path id="Path_7091" data-name="Path 7091" d="M2107.35,1074.406l2.934-2.453s-2.952-2.3-3.168-4.185a6.237,6.237,0,0,0-3.192,1.32S2104.547,1073.089,2107.35,1074.406Z" transform="translate(-2064.22 -1043.132)" fill="#233862"/>
        <rect id="Rectangle_273" data-name="Rectangle 273" width="7.006" height="1.313" transform="translate(34.604 37.135)" fill="#233862"/>
        <rect id="Rectangle_274" data-name="Rectangle 274" width="7.006" height="1.313" transform="translate(49.7 37.135)" fill="#233862"/>
        <path id="Path_7092" data-name="Path 7092" d="M2118.377,1092.941s-2.458,20.562-1.2,27.965l2.192,6.274,3.036-6.946s-1.448-19.483-1.582-27.223Z" transform="translate(-2073.897 -1062.027)" fill="#192e4f"/>
        <path id="Path_7093" data-name="Path 7093" d="M2125.828,1217.833a6.944,6.944,0,0,0-2.437-1.21c-1.058-.156-2.842-.831-2.552-.2s2.241,1.614,2.241,1.614Z" transform="translate(-2076.893 -1154.513)" fill="#ffb27d"/>
        <path id="Path_7094" data-name="Path 7094" d="M2145.176,1193.981s8.062-5.688,10.167-9.87l-.271,3.883Z" transform="translate(-2095.184 -1130.459)" fill="#233862"/>
        <g id="Group_7247" data-name="Group 7247" transform="translate(33.938 46.932)">
          <path id="Path_7095" data-name="Path 7095" d="M2098.893,1206.644l-5.383.657a1.232,1.232,0,0,1-1.329-.867l-3.683-12.213a1.232,1.232,0,0,1,1.03-1.579l5.383-.657a1.232,1.232,0,0,1,1.329.867l3.683,12.213A1.233,1.233,0,0,1,2098.893,1206.644Z" transform="translate(-2086.539 -1183.295)" fill="#aec3ff"/>
          <path id="Path_7096" data-name="Path 7096" d="M2091.25,1207.576l-5.384.657a1.233,1.233,0,0,1-1.329-.867l-3.682-12.213a1.231,1.231,0,0,1,1.03-1.579l5.382-.657a1.233,1.233,0,0,1,1.33.867L2092.28,1206A1.232,1.232,0,0,1,2091.25,1207.576Z" transform="translate(-2080.802 -1183.995)" fill="#91b0f2"/>
          <path id="Path_7097" data-name="Path 7097" d="M2095.4,1168.442h0a.374.374,0,0,1-.379-.243l-3.607-10.716a.228.228,0,0,1,.192-.312h0a.373.373,0,0,1,.379.243l3.606,10.715A.228.228,0,0,1,2095.4,1168.442Z" transform="translate(-2088.755 -1157.168)" fill="#91b0f2"/>
        </g>
        <path id="Path_7098" data-name="Path 7098" d="M2136.923,1229.217a28.46,28.46,0,0,0,12.226-.192l-.111-4.162-11.545,3.383Z" transform="translate(-2088.989 -1161.048)" fill="#233862"/>
        <path id="Path_7099" data-name="Path 7099" d="M2119.3,1220.427s-3.1.993-3.782.813a4.554,4.554,0,0,1-1.708-.644c-.687-.467-2.2.151-2.653.449-1.255.837-5.493.8-5.493,1.64s1.742,3.729,4.075,3.887c1.2.082,12.656-2.864,12.656-2.864Z" transform="translate(-2065.529 -1157.718)" fill="#ffb27d"/>
        <path id="Path_7100" data-name="Path 7100" d="M2165.415,1133.16s3.732,11.88,1.562,18.322a2.567,2.567,0,0,1-.969,1.292c-2.05,1.423-11.6,6.25-19.684,7.418a7.946,7.946,0,0,1-.993-2.479,12.409,12.409,0,0,1-.154-1.977s12.294-7.277,12.043-8.469-3.639-10.791-3.639-10.791Z" transform="translate(-2095.184 -1092.216)" fill="#2b478b"/>
        <path id="Path_7101" data-name="Path 7101" d="M2076.768,1250.021s10.057,3.679,27.094-.337l.109,2.928s-14.39,3.3-27.382-.357Z" transform="translate(-2043.702 -1179.68)" fill="#233862"/>
        <path id="Path_7102" data-name="Path 7102" d="M2168.817,1075.343l6.837,2.1,1.317-1.457-7.164-1.787Z" transform="translate(-2112.928 -1047.959)" fill="#233862"/>
        <path id="Path_7103" data-name="Path 7103" d="M2079.379,1075.973l-.878,1.6,5.145-2.147v-.614Z" transform="translate(-2045.137 -1048.421)" fill="#233862"/>
      </g>
      <path id="Path_7104" data-name="Path 7104" d="M485.013,363.689c-6.3,12.992-29.352,10.632-47.157,6.523.025-.569.049-1.148.071-1.732a32.362,32.362,0,0,0-1.2-8.944c-13.943-41.694,4.048-71.434,31.843-89.547a31.241,31.241,0,0,1,5.6,6.726c12.873,21.011,19.713,11.7,30.952,25.149s-5.072,19.643-17.717,24.839C470.468,333.666,495.679,341.7,485.013,363.689Z" transform="translate(-359.684 -252.718)" fill="#a8d29f"/>
      <path id="Path_7105" data-name="Path 7105" d="M2409.565,1556.2H2393.13c-.881-.746.61-2.443,2.167-2.557a9.6,9.6,0,0,1,2.508.3c.226-3,1.518-16.506,6.385-15.964,5.474.608,0,5.947-1.547,9.108a75.387,75.387,0,0,0-2.908,7.283c.445.1.9.191,1.374.277.726-2.227,3.424-9.719,6.856-9.282,4.031.511,2.411,3.515-.446,5.3-2.1,1.311-4.669,3.175-5.892,4.075a17.508,17.508,0,0,0,3.215.258C2407.658,1554.924,2409.032,1555.753,2409.565,1556.2Z" transform="translate(-1831.593 -1204.461)" fill="#8ec181"/>
      <path id="Path_7106" data-name="Path 7106" d="M1529.228,1568.636h12.711c.681-.578-.471-1.89-1.676-1.979a7.434,7.434,0,0,0-1.94.229c-.175-2.323-1.174-12.768-4.939-12.348-4.233.47,0,4.6,1.2,7.045a58.09,58.09,0,0,1,2.249,5.633c-.344.075-.7.148-1.062.215-.561-1.723-2.649-7.518-5.3-7.18-3.117.4-1.864,2.719.345,4.1,1.621,1.014,3.611,2.456,4.557,3.152a13.5,13.5,0,0,1-2.486.2A5.356,5.356,0,0,0,1529.228,1568.636Z" transform="translate(-1182.867 -1216.898)" fill="#8ec181"/>
      <path id="Rectangle_275" data-name="Rectangle 275" d="M.812,0H590.834a.812.812,0,0,1,.812.812v0a.812.812,0,0,1-.812.812H.812A.812.812,0,0,1,0,.813v0A.812.812,0,0,1,.812,0Z" transform="translate(15.961 351.739)" fill="#2e3552"/>
      <g id="P297LW-2" data-name="P297LW" transform="translate(88.563 171.033)">
        <g id="Group_7254" data-name="Group 7254" transform="translate(0 0)">
          <path id="Path_7107" data-name="Path 7107" d="M2454.823,1028.037c-1.726.4-9.525.494-15-.737a16.747,16.747,0,0,1-3.047-.95,4.7,4.7,0,0,1-2.207-1.666,61.538,61.538,0,0,1-3.083-9.19c-3.667-12.751-8.828-33.821-8.828-33.821s10.364,2.115,12.555,3.921,4.13,30.446,6.193,31.22c.3.114.828.354,1.5.685l.1.048c.4.2.851.426,1.339.677,4.278,2.2,11.359,6.16,12.092,7.04C2457.4,1026.426,2457.338,1027.457,2454.823,1028.037Z" transform="translate(-2383.759 -950.173)" fill="#739af0"/>
          <path id="Path_7108" data-name="Path 7108" d="M2319.84,997.979a8.144,8.144,0,0,0-.138-1.465c-1.333-7.332-11.936-14.841-12.145-14.841l0,.153c0,1.12-1.767,3.189-4.488,3.367-3.227.211-7.212-1.63-7.212-3.49-.019,0-1.813.243-2.421.31-2.587.294-7.751,1.692-9.962,3.363-2.1,1.589.87,11.607,2.709,18.7.78,3,1.355,5.478,1.26,6.576-.046.536-.528,7.818-.957,14.405-.356,5.434-.678,10.394-.687,10.705-.024.617,3.046,2.779,8.2,4.412a40.038,40.038,0,0,0,4.088,1.06,43.418,43.418,0,0,0,8.892.883c1.065,0,2.073-.058,3.025-.153C2317.361,1041.245,2319.883,1032.856,2319.84,997.979Z" transform="translate(-2268.661 -950.173)" fill="#739af0"/>
          <path id="Path_7109" data-name="Path 7109" d="M2356.575,939.038a62.448,62.448,0,0,1,.369-9.121l11.367,1.858s.013,3.47-.037,7.32c.007,0,.309,3.57-4.089,4.093S2356.456,941.794,2356.575,939.038Z" transform="translate(-2329.377 -907.594)" fill="#d9935c"/>
          <path id="Path_7110" data-name="Path 7110" d="M2406.438,1782.987c-1.43-.88-.59-7.4-.59-7.4s6.694-5.314,7.6-1.222,6.318,5.947,9.4,6.459c2.129.354,2.916,1.455,3.117,2.154Z" transform="translate(-2369.731 -1601.031)" fill="#233862"/>
          <path id="Path_7111" data-name="Path 7111" d="M2312.282,1082.518c0,10.9-5.283,7.963-8.472,5.02.43-6.587.731-29.919.731-29.919S2312.282,1066.908,2312.282,1082.518Z" transform="translate(-2285.988 -1012.652)" fill="#4a75cb"/>
          <path id="Path_7112" data-name="Path 7112" d="M2485.3,1105.1c-.211,1.529-2.626,5.979-4.521,9.076a16.743,16.743,0,0,1-3.048-.95,4.7,4.7,0,0,1-2.206-1.666,61.55,61.55,0,0,1-3.083-9.19c.985-5.7,1.922-11.323,1.922-11.323l.291-3.774c0,.29,4.418,16.869,6.419,17.256a7.1,7.1,0,0,0,2.788-.155c.033.015.066.033.1.048C2484.36,1104.618,2484.812,1104.846,2485.3,1105.1Z" transform="translate(-2424.717 -1037.046)" fill="#4a75cb"/>
          <path id="Path_7113" data-name="Path 7113" d="M2290.756,1782.987c-1.429-.88-.589-7.4-.589-7.4s6.694-5.314,7.6-1.222,6.318,5.947,9.4,6.459c2.13.354,2.9,1.455,3.106,2.154Z" transform="translate(-2274.562 -1601.031)" fill="#233862"/>
          <path id="Path_7114" data-name="Path 7114" d="M2341.412,849.495s-7.588-11.964,6.983-12.756c0,0,5.464.643,6.7-.594,0,0,4.239,6.443.28,13.35S2341.412,849.495,2341.412,849.495Z" transform="translate(-2315.297 -830.45)" fill="#233862"/>
          <path id="Path_7115" data-name="Path 7115" d="M2363.055,880.078a15.6,15.6,0,0,1-5.279,1.833,42.253,42.253,0,0,1-5.675-1.6c-1.352-.82-1.265-2.479-1.334-4.785-.083-2.73-.358-4.874-.053-6.447.362-1.882,1.556-2.953,4.9-3.244,6.134-.533,8.69,1,8.8,3.06.028.552.054,1.079.072,1.578C2364.723,876.889,2364.217,879.164,2363.055,880.078Z" transform="translate(-2324.458 -854.79)" fill="#d9935c"/>
          <path id="Path_7116" data-name="Path 7116" d="M2364.758,904.342c-.059,3.716-1.062,5.915-1.788,6.193a15.384,15.384,0,0,1-2.845.76c-.346.04-.677.029-.673-.167.011-.586.794-1.308.213-1.827-.611-.544-3.886-.728-4.151.46-.129.579.928,1.6.2,1.625-.219-.038-.435-.08-.641-.133a9.557,9.557,0,0,1-2.523-1.114c-1.352-.82-1.264-2.076-1.563-4.364-.194-1.48-.194-.678,0,1.518.2,2.3-.194,3.773,1.334,4.784.85.563,5.747,2.763,5.747,2.763-.071-1.165,4.1-2.129,5.208-3C2364.3,911.037,2364.819,909.172,2364.758,904.342Z" transform="translate(-2324.683 -886.554)" fill="#233862"/>
          <path id="Path_7117" data-name="Path 7117" d="M2299.729,1104.616c-.023.617,3.046,2.779,8.2,4.412q.622.2,1.286.383a.015.015,0,0,1,.01.013c.48,5.641,1.783,13.609,2.956,21.3v0c.3,1.993.6,3.967.869,5.877a116.891,116.891,0,0,1,1.31,12.975v.035c.025,1.521-1.258,5.316-1.355,6.193-.06.536-.108,1.1-.143,1.7a68.822,68.822,0,0,0,.108,8.176c.842,13.074,4.3,29.8,5.529,30.513,2.449,1.417,6.908,0,9.174-.333a1.873,1.873,0,0,0,1.642-1.885c-1.107-21.7,2.072-51.914,4.449-70.49q.093-.726.184-1.425c.284-2.191.472-4.236.59-6.08.108-1.618.161-3.086.184-4.359.005-.4.01-.776.011-1.134.006-1.163-.919-8.776-.962-43.653h0a1.471,1.471,0,0,0-1.467-1.465h-21.329a3.7,3.7,0,0,0-3.693,3.748,59.378,59.378,0,0,1-.641,9.92c-.787,4.843-2.473,9.367-5.952,10.456a.018.018,0,0,0-.009.007c-.015.035-.11.247-.262.6a.009.009,0,0,0,0,.005q-.049,1.314-.11,2.676c-.008.182-.015.365-.025.55,0,.108-.009.215-.015.323-.008.184-.018.37-.027.556q-.021.458-.047.925c-.014.244-.027.488-.041.734q-.038.708-.085,1.432c-.008.155-.018.308-.03.464-.04.624-.083,1.256-.131,1.893-.013.2-.029.391-.045.588q-.009.142-.021.285c-.019.25-.039.5-.06.751s-.044.532-.068.8C2299.628,1103.056,2299.755,1103.929,2299.729,1104.616Z" transform="translate(-2282.593 -1019.024)" fill="#2b478b"/>
          <path id="Path_7118" data-name="Path 7118" d="M2374.607,1377.527c.842,13.074,4.3,29.8,5.527,30.514,2.45,1.417,6.909,0,9.176-.333a1.872,1.872,0,0,0,1.641-1.885c-1.107-21.7,2.072-51.915,4.449-70.49q.092-.725.184-1.424c.284-2.191.472-4.236.59-6.08-1.13-7.365-7.509-7.76-13.292,7.475C2383.6,1340.359,2374.414,1374.532,2374.607,1377.527Z" transform="translate(-2344.228 -1230.876)" fill="#233862"/>
          <path id="Path_7119" data-name="Path 7119" d="M2281.016,1309.955c-.175,1.511-1.944,5.105-2.156,5.961-2.924,11.76-1.309,39.644.141,40.759,2.242,1.726,6.849.906,9.138.875a1.871,1.871,0,0,0,1.874-1.652c1.8-22.217,9.249-52.732,14.041-70.683a84.279,84.279,0,0,0,2.753-15.69s-22.393-13.72-24.815-6.225C2279.85,1269.932,2282.367,1298.35,2281.016,1309.955Z" transform="translate(-2264.119 -1180.018)" fill="#2b478b"/>
          <g id="Group_7250" data-name="Group 7250" transform="translate(23.269 0)">
            <path id="Path_7120" data-name="Path 7120" d="M2350.961,806.97q-.232-.261-.491-.506a8.714,8.714,0,0,0-2.668-1.734,8.94,8.94,0,0,0-9.166,1.414c-.2.15-.388.3-.562.453a11.764,11.764,0,0,0-1.715,1.769s-1.9,2.587-1.833,8.04l19.533.209S2354.347,810.725,2350.961,806.97Z" transform="translate(-2334.526 -804.026)" fill="#ffa412"/>
            <g id="Group_7249" data-name="Group 7249" transform="translate(0.002 2.296)">
              <path id="Path_7121" data-name="Path 7121" d="M2356.474,827.117l1.074.012c.022-.311-.031-7.4-2.675-10.152a3.812,3.812,0,0,0-.333.274C2357.052,819.675,2356.48,827.044,2356.474,827.117Z" transform="translate(-2350.993 -816.977)" fill="#e27f2b"/>
              <path id="Path_7122" data-name="Path 7122" d="M2348.5,827.867a30.021,30.021,0,0,1,2.334-9.712,4.531,4.531,0,0,0-.36-.38,26.247,26.247,0,0,0-3.128,10.079l-12.815-.137a66.573,66.573,0,0,0,10.411,1.505,42.629,42.629,0,0,0,9.121-1.3Z" transform="translate(-2334.535 -817.634)" fill="#e27f2b"/>
            </g>
          </g>
          <path id="Path_7123" data-name="Path 7123" d="M2328.528,984.178s6.6,7.688,6.987,14.4l-3.363.178a32.322,32.322,0,0,0-5.813-14.116s.777-.188,1.035-.24C2327.72,984.33,2328.528,984.178,2328.528,984.178Z" transform="translate(-2304.522 -952.234)" fill="#2b478b"/>
          <path id="Path_7124" data-name="Path 7124" d="M2431.479,983.583a33.616,33.616,0,0,1,5.234,14.648l3.394-.059c-.279-5.273-3.592-11.074-5.42-13.822C2434.687,984.351,2432.338,983.757,2431.479,983.583Z" transform="translate(-2391.018 -951.744)" fill="#2b478b"/>
          <g id="Group_7251" data-name="Group 7251" transform="translate(0 102.055)">
            <path id="Path_7125" data-name="Path 7125" d="M2260.253,1383.132h-2.725c-1.267-.575-8.091-3.531-14.65-3.567-4.732-.026-10.125,3.51-10.45,3.548-.822.1,2.742.129,2.742.129s5.342-2.363,7.74-2.419c2.288-.053,7.366,1.609,9.394,2.309h-15.273a2.329,2.329,0,0,0-2.323,2.322v17.417a2.329,2.329,0,0,0,2.323,2.322h23.222a2.329,2.329,0,0,0,2.322-2.322v-17.417A2.329,2.329,0,0,0,2260.253,1383.132Z" transform="translate(-2227.162 -1379.565)" fill="#ffa412"/>
            <path id="Rectangle_276" data-name="Rectangle 276" d="M11.03,0h5.806A11.031,11.031,0,0,1,27.866,11.031v0a11.03,11.03,0,0,1-11.03,11.03H11.031A11.031,11.031,0,0,1,0,11.03v0A11.03,11.03,0,0,1,11.03,0Z" transform="translate(0 3.567)" fill="#e27f2b"/>
          </g>
          <path id="Path_7126" data-name="Path 7126" d="M2269.8,1027.582c.166,7.872-.815,23.549-.815,23.549h-4.645c-2.192-11.03-2.967-18.127-2.967-22q0-1.144.009-2.129c.03-3.305.119-5.225.119-5.225-.871-20.027,3.129-30.736,4.384-32.211s7.006-2.8,7.006-2.8a78.931,78.931,0,0,1,2.673,9.984c.774,4.451-6.089,23.152-5.806,29.544C2269.781,1026.7,2269.793,1027.125,2269.8,1027.582Z" transform="translate(-2251.079 -954.365)" fill="#739af0"/>
          <g id="Group_7253" data-name="Group 7253" transform="translate(74.571 78.575)">
            <path id="Path_7127" data-name="Path 7127" d="M2628.273,1247.151h-3.756a.682.682,0,0,0-.677.68V1350.11a.68.68,0,0,0,.677.678h3.756a.679.679,0,0,0,.677-.678V1247.831A.681.681,0,0,0,2628.273,1247.151Z" transform="translate(-2623.84 -1247.151)" fill="#f1a34f"/>
            <g id="Group_7252" data-name="Group 7252">
              <path id="Path_7128" data-name="Path 7128" d="M2628.273,1247.151h-3.756a.682.682,0,0,0-.677.68V1251h5.111v-3.17A.681.681,0,0,0,2628.273,1247.151Z" transform="translate(-2623.84 -1247.151)" fill="#2b478b"/>
              <path id="Path_7129" data-name="Path 7129" d="M2623.84,1815.106a.681.681,0,0,0,.677.679h3.756a.679.679,0,0,0,.677-.679v-2.733h-5.111Z" transform="translate(-2623.84 -1712.147)" fill="#2b478b"/>
            </g>
            <path id="Path_7130" data-name="Path 7130" d="M2636.636,1284.948a.388.388,0,0,0-.387.387v90.027a.387.387,0,0,0,.774,0v-90.027A.388.388,0,0,0,2636.636,1284.948Z" transform="translate(-2634.049 -1278.246)" fill="#e27f2b"/>
          </g>
          <path id="Path_7131" data-name="Path 7131" d="M2268.989,1236.408s.98-15.677.815-23.549a16.46,16.46,0,0,0-8.417-.577q-.008.984-.009,2.129c0,3.87.774,10.966,2.967,22-.968,4.064-.9,8.451.774,9.225s7.225-2.129,7.161-3.419S2268.989,1236.408,2268.989,1236.408Z" transform="translate(-2251.079 -1139.642)" fill="#d9935c"/>
          <path id="Path_7132" data-name="Path 7132" d="M2530.712,1195.25c-.452-1.661-.789-2.58-1.932-3.387-1.66-1.171-3.632-.855-5.1-.6a5.639,5.639,0,0,1-2.792-.369c-2.6-1.734-9.134-5.31-12.387-6.913-2.22,1.287-4.945,3.833-6.229,8.8,5.006,2.208,15.962,2.169,18.049,1.688a8.893,8.893,0,0,0,3.4,1.532,5.1,5.1,0,0,0,1.914-.333,2.6,2.6,0,0,1,2.882.917,3.558,3.558,0,0,0,2.034,1.367C2531.148,1197.958,2531,1196.295,2530.712,1195.25Z" transform="translate(-2449.256 -1116.61)" fill="#d9935c"/>
        </g>
      </g>
    </g>
  </g>
</svg>
